<svg width="53" height="53" viewBox="0 0 53 53" fill="none" xmlns="http://www.w3.org/2000/svg">
<circle cx="26.5" cy="26.5" r="24.5" fill="white" stroke="#D2D8E1" stroke-width="4"/>
<path d="M26.5 2C29.7174 2 32.9033 2.63371 35.8757 3.86495C38.8482 5.09619 41.5491 6.90085 43.8241 9.17589C46.0992 11.4509 47.9038 14.1518 49.135 17.1243C50.3663 20.0967 51 23.2826 51 26.5C51 29.7174 50.3663 32.9033 49.135 35.8757C47.9038 38.8482 46.0991 41.5491 43.8241 43.8241C41.5491 46.0992 38.8482 47.9038 35.8757 49.1351C32.9033 50.3663 29.7174 51 26.5 51C23.2826 51 20.0967 50.3663 17.1242 49.135C14.1518 47.9038 11.4509 46.0991 9.17588 43.8241C6.90084 41.5491 5.09619 38.8482 3.86495 35.8757C2.63371 32.9033 2 29.7174 2 26.5C2 23.2826 2.63371 20.0967 3.86496 17.1242C5.0962 14.1518 6.90086 11.4509 9.17589 9.17587C11.4509 6.90084 14.1518 5.09618 17.1243 3.86495C20.0967 2.63371 23.2826 2 26.5 2L26.5 2Z" stroke="url(#paint0_linear_307_8)" stroke-width="4"/>
<defs>
<linearGradient id="paint0_linear_307_8" x1="51" y1="2" x2="26.5561" y2="61.1482" gradientUnits="userSpaceOnUse">
<stop stop-color="#8432B1"/>
<stop offset="1" stop-color="#6A3EB3"/>
</linearGradient>
</defs>
</svg>
