<svg width="26" height="26" viewBox="0 0 26 26" fill="none" xmlns="http://www.w3.org/2000/svg">
<path d="M22.2168 19.6321L15.5848 13L22.2168 6.36799C22.9328 5.65198 22.9328 4.49924 22.2168 3.78323C21.5008 3.06721 20.3481 3.06721 19.6321 3.78323L13 10.4153L6.36799 3.78323C5.65198 3.06721 4.49924 3.06721 3.78323 3.78323C3.06721 4.49924 3.06721 5.65198 3.78323 6.36799L10.4153 13L3.78323 19.6321C3.06721 20.3481 3.06721 21.5008 3.78323 22.2168C4.49924 22.9328 5.65198 22.9328 6.36799 22.2168L13 15.5848L19.6321 22.2168C20.3481 22.9328 21.5008 22.9328 22.2168 22.2168C22.9278 21.5008 22.9278 20.343 22.2168 19.6321Z" fill="white"/>
</svg>
