<svg width="65" height="65" viewBox="0 0 65 65" fill="none" xmlns="http://www.w3.org/2000/svg">
<path d="M22.8226 45.1778C23.1871 45.5424 23.6243 45.6883 24.1342 45.6883C24.6447 45.6883 25.0819 45.5424 25.4459 45.1778L43.6673 26.9564C44.3964 26.2274 44.3964 25.0616 43.6673 24.4052C42.9382 23.6761 41.7724 23.6761 41.116 24.4052L22.8947 42.6266C22.1661 43.2829 22.1661 44.4492 22.8225 45.1778H22.8226Z" fill="url(#paint0_linear_147_882)"/>
<path d="M35.0674 42.0436C35.0674 45.032 37.5454 47.51 40.5338 47.51C43.5222 47.51 46.0002 45.032 46.0002 42.0436C46.0002 39.0551 43.5222 36.5771 40.5338 36.5771C37.5454 36.5771 35.0674 39.0551 35.0674 42.0436ZM42.3559 42.0436C42.3559 43.0639 41.5542 43.8657 40.5338 43.8657C39.5134 43.8657 38.7117 43.0639 38.7117 42.0436C38.7117 41.0232 39.5134 40.2214 40.5338 40.2214C41.5542 40.2214 42.3559 41.0232 42.3559 42.0436Z" fill="url(#paint1_linear_147_882)"/>
<path d="M25.9566 32.9328C28.9451 32.9328 31.4231 30.4549 31.4231 27.4664C31.4231 24.478 28.9451 22 25.9566 22C22.9682 22 20.4902 24.478 20.4902 27.4664C20.4902 30.4549 22.9682 32.9328 25.9566 32.9328ZM25.9566 25.6443C26.977 25.6443 27.7788 26.446 27.7788 27.4664C27.7788 28.4868 26.977 29.2886 25.9566 29.2886C24.9363 29.2886 24.1345 28.4868 24.1345 27.4664C24.1345 26.446 24.9363 25.6443 25.9566 25.6443Z" fill="url(#paint2_linear_147_882)"/>
<path d="M45.8473 6.93924L45.8472 6.93955C56.815 11.935 63.9006 22.7467 63.9 34.481C63.9 51.2515 49.8157 64.9 32.5 64.9C15.1837 64.9 1.1 51.2512 1.1 34.481C1.1 19.7972 11.8995 7.50641 26.2119 4.67698L26.4791 4.62417L26.2412 4.49154L24.572 3.56078L24.5233 3.64812L24.572 3.56078C23.6547 3.04935 23.3415 1.91665 23.867 1.03067C24.394 0.142936 25.5662 -0.164208 26.4866 0.347857L33.5865 4.3063C34.0967 4.59107 34.4437 5.08599 34.5268 5.64858C34.6099 6.21088 34.4231 6.77992 34.0171 7.19191L34.0883 7.2621L34.017 7.19192L28.5553 12.7372L28.6265 12.8074L28.5552 12.7373C28.1784 13.12 27.6738 13.3127 27.1672 13.3127C26.69 13.3127 26.2127 13.1418 25.8428 12.799L25.8427 12.7989C25.0782 12.0923 25.0501 10.9196 25.7791 10.1791L25.7079 10.1089L25.7792 10.1791L27.5322 8.39824L27.7532 8.17371L27.4432 8.22968C14.654 10.5381 4.93464 21.4244 4.93464 34.4809C4.93464 49.2115 17.3035 61.1901 32.5006 61.1901C47.6977 61.1901 60.0666 49.2109 60.0666 34.4795C60.0666 24.1723 53.8436 14.68 44.2148 10.2946L44.2147 10.2945C43.2557 9.85849 42.8474 8.75431 43.2959 7.82947C43.7458 6.903 44.8872 6.5023 45.8473 6.93924Z" fill="url(#paint3_linear_147_882)" stroke="white" stroke-width="0.2"/>
<defs>
<linearGradient id="paint0_linear_147_882" x1="41.9328" y1="26.2201" x2="24.6352" y2="43.7029" gradientUnits="userSpaceOnUse">
<stop stop-color="#361B89"/>
<stop offset="1" stop-color="#593DAE"/>
</linearGradient>
<linearGradient id="paint1_linear_147_882" x1="44.86" y1="37.7599" x2="36.1969" y2="46.4977" gradientUnits="userSpaceOnUse">
<stop stop-color="#361B89"/>
<stop offset="1" stop-color="#593DAE"/>
</linearGradient>
<linearGradient id="paint2_linear_147_882" x1="30.2829" y1="23.1828" x2="21.6197" y2="31.9205" gradientUnits="userSpaceOnUse">
<stop stop-color="#361B89"/>
<stop offset="1" stop-color="#593DAE"/>
</linearGradient>
<linearGradient id="paint3_linear_147_882" x1="57.4298" y1="7.03216" x2="5.93533" y2="57.3719" gradientUnits="userSpaceOnUse">
<stop stop-color="#361B89"/>
<stop offset="1" stop-color="#593DAE"/>
</linearGradient>
</defs>
</svg>
