<svg width="65" height="65" viewBox="0 0 65 65" fill="none" xmlns="http://www.w3.org/2000/svg">
<g clip-path="url(#clip0_147_1243)">
<path d="M32.4998 1.30005C15.2969 1.30005 1.2998 15.2971 1.2998 32.5C1.2998 49.7029 15.2969 63.7001 32.4998 63.7001C49.7027 63.7001 63.6998 49.7029 63.6998 32.5C63.6998 15.2971 49.7027 1.30005 32.4998 1.30005ZM32.4998 61.1001C16.7295 61.1001 3.8998 48.2704 3.8998 32.5C3.8998 16.7298 16.7295 3.90005 32.4998 3.90005C48.2701 3.90005 61.0998 16.7298 61.0998 32.5C61.0998 48.2704 48.2701 61.1001 32.4998 61.1001Z" fill="url(#paint0_linear_147_1243)" stroke="url(#paint1_linear_147_1243)" stroke-width="1.2"/>
<path d="M34.6383 31.0323C34.2314 30.4487 33.7997 29.8227 33.7997 29.1113V10.4001C33.7997 9.68213 33.2176 9.1001 32.4997 9.1001C31.7817 9.1001 31.1997 9.68213 31.1997 10.4001V29.1096C31.1997 29.822 30.7667 30.4486 30.3597 31.0332C30.0702 31.4491 29.8997 31.9534 29.8997 32.5001C29.8997 32.9179 29.8144 33.3472 29.519 33.6426L19.4997 43.6619C18.9921 44.1695 18.9921 44.9925 19.4997 45.5001C20.0073 46.0077 20.8303 46.0077 21.3379 45.5001L31.3572 35.4808C31.6526 35.1854 32.0819 35.1001 32.4997 35.1001C33.9349 35.1001 35.0997 33.9366 35.0997 32.5001C35.0997 31.9533 34.9286 31.4487 34.6383 31.0323Z" fill="url(#paint2_linear_147_1243)" stroke="url(#paint3_linear_147_1243)"/>
</g>
<defs>
<linearGradient id="paint0_linear_147_1243" x1="57.1922" y1="8.05092" x2="7.74659" y2="57.9223" gradientUnits="userSpaceOnUse">
<stop stop-color="#361B89"/>
<stop offset="1" stop-color="#593DAE"/>
</linearGradient>
<linearGradient id="paint1_linear_147_1243" x1="57.1922" y1="8.05092" x2="7.74659" y2="57.9223" gradientUnits="userSpaceOnUse">
<stop stop-color="#361B89"/>
<stop offset="1" stop-color="#593DAE"/>
</linearGradient>
<linearGradient id="paint2_linear_147_1243" x1="33.3769" y1="13.1375" x2="11.3597" y2="22.9673" gradientUnits="userSpaceOnUse">
<stop stop-color="#361B89"/>
<stop offset="1" stop-color="#593DAE"/>
</linearGradient>
<linearGradient id="paint3_linear_147_1243" x1="33.3769" y1="13.1375" x2="11.3597" y2="22.9673" gradientUnits="userSpaceOnUse">
<stop stop-color="#361B89"/>
<stop offset="1" stop-color="#593DAE"/>
</linearGradient>
<clipPath id="clip0_147_1243">
<rect width="65" height="65" fill="white"/>
</clipPath>
</defs>
</svg>
