<svg width="65" height="65" viewBox="0 0 65 65" fill="none" xmlns="http://www.w3.org/2000/svg">
<g clip-path="url(#clip0_147_870)">
<path d="M2.23396 34.0586H7.53098V62.3093C7.53098 63.2981 8.3079 64.075 9.29665 64.075H55.2041C56.1929 64.075 56.9698 63.2981 56.9698 62.3093V34.0586H62.2668C63.8206 34.0586 64.5975 32.1515 63.5378 31.0219L33.5214 1.00544C32.8149 0.298968 31.6852 0.298968 31.0492 1.00544L0.963438 31.0219C-0.0962555 32.1515 0.680652 34.0586 2.23447 34.0586H2.23396ZM32.2504 4.74841L58.0292 30.5272H55.2044C54.2156 30.5272 53.4387 31.3041 53.4387 32.2929V60.5436H11.0626V32.2929C11.0626 31.3041 10.2857 30.5272 9.2969 30.5272H6.47208L32.2504 4.74841Z" fill="url(#paint0_linear_147_870)"/>
<path d="M22.1508 49.4551C22.5041 49.8084 22.9277 49.9498 23.4219 49.9498C23.9165 49.9498 24.3402 49.8084 24.6929 49.4551L42.3496 31.7984C43.0561 31.092 43.0561 29.9623 42.3496 29.3262C41.6431 28.6198 40.5134 28.6198 39.8774 29.3262L22.2207 46.983C21.5147 47.619 21.5147 48.7491 22.1507 49.4551H22.1508Z" fill="url(#paint1_linear_147_870)"/>
<path d="M34.0161 46.4184C34.0161 49.3142 36.4173 51.7154 39.3131 51.7154C42.209 51.7154 44.6101 49.3142 44.6101 46.4184C44.6101 43.5225 42.209 41.1213 39.3131 41.1213C36.4173 41.1213 34.0161 43.5225 34.0161 46.4184ZM41.0788 46.4184C41.0788 47.4071 40.3019 48.184 39.3131 48.184C38.3244 48.184 37.5475 47.4071 37.5475 46.4184C37.5475 45.4296 38.3244 44.6527 39.3131 44.6527C40.3019 44.6527 41.0788 45.4296 41.0788 46.4184Z" fill="url(#paint2_linear_147_870)"/>
<path d="M25.1876 37.5899C28.0835 37.5899 30.4847 35.1887 30.4847 32.2929C30.4847 29.397 28.0835 26.9958 25.1876 26.9958C22.2918 26.9958 19.8906 29.397 19.8906 32.2929C19.8906 35.1887 22.2918 37.5899 25.1876 37.5899ZM25.1876 30.5272C26.1764 30.5272 26.9533 31.3041 26.9533 32.2929C26.9533 33.2816 26.1764 34.0585 25.1876 34.0585C24.1989 34.0585 23.422 33.2816 23.422 32.2929C23.422 31.3041 24.1989 30.5272 25.1876 30.5272Z" fill="url(#paint3_linear_147_870)"/>
</g>
<defs>
<linearGradient id="paint0_linear_147_870" x1="57.3981" y1="7.35622" x2="7.00179" y2="58.1471" gradientUnits="userSpaceOnUse">
<stop stop-color="#361B89"/>
<stop offset="1" stop-color="#593DAE"/>
</linearGradient>
<linearGradient id="paint1_linear_147_870" x1="40.6688" y1="31.0849" x2="23.9073" y2="48.0259" gradientUnits="userSpaceOnUse">
<stop stop-color="#361B89"/>
<stop offset="1" stop-color="#593DAE"/>
</linearGradient>
<linearGradient id="paint2_linear_147_870" x1="43.5053" y1="42.2675" x2="35.1106" y2="50.7344" gradientUnits="userSpaceOnUse">
<stop stop-color="#361B89"/>
<stop offset="1" stop-color="#593DAE"/>
</linearGradient>
<linearGradient id="paint3_linear_147_870" x1="29.3798" y1="28.142" x2="20.9851" y2="36.609" gradientUnits="userSpaceOnUse">
<stop stop-color="#361B89"/>
<stop offset="1" stop-color="#593DAE"/>
</linearGradient>
<clipPath id="clip0_147_870">
<rect width="65" height="65" fill="white"/>
</clipPath>
</defs>
</svg>
