<svg width="65" height="65" viewBox="0 0 65 65" fill="none" xmlns="http://www.w3.org/2000/svg">
<path d="M49.5014 3.01049C49.0346 3.01049 48.6593 2.63525 48.6593 2.16845C48.6593 1.70166 49.0346 1.32642 49.5014 1.32642H55.5903C56.0532 1.32642 56.4324 1.70166 56.4324 2.16845V8.21169C56.4324 8.67459 56.0537 9.05372 55.5903 9.05372C55.1236 9.05372 54.7449 8.67502 54.7449 8.21169L54.7444 4.2783C50.7886 8.34898 46.4652 11.9953 41.7809 15.2283C36.4956 18.8745 30.7473 21.9883 24.5415 24.5744C24.1132 24.7541 23.6218 24.5498 23.4434 24.1215C23.2638 23.6931 23.4681 23.1978 23.8964 23.0195C29.9988 20.4752 35.6439 17.4184 40.8263 13.8452C45.4652 10.6485 49.7332 7.03677 53.6361 3.01052L49.5014 3.01049ZM7.03247 41.104H14.3918C14.8547 41.104 15.2339 41.4793 15.2339 41.9461V62.3857C15.2339 62.8525 14.8552 63.2312 14.3918 63.2312H7.03247C6.56568 63.2312 6.19043 62.8525 6.19043 62.3857V41.9461C6.18914 41.4793 6.56568 41.104 7.03247 41.104ZM13.546 42.7881H7.87449V61.543H13.5464L13.546 42.7881ZM59.2438 32.7086V62.3853C59.2438 62.8521 58.8651 63.2308 58.4018 63.2308H51.0424C50.5756 63.2308 50.2004 62.8521 50.2004 62.3853L50.2008 17.8692C50.2008 17.4024 50.5761 17.0271 51.0429 17.0271H58.4022C58.8651 17.0271 59.2443 17.4024 59.2443 17.8692L59.2438 32.7086ZM57.555 61.5441V18.7137H51.8831V61.5441H57.555ZM42.8847 28.9711H37.2128V61.543H42.8847V28.9711ZM36.3712 27.2871H43.7306C44.1935 27.2871 44.5726 27.6623 44.5726 28.1291V62.3857C44.5726 62.8525 44.1939 63.2312 43.7306 63.2312H36.3712C35.9044 63.2312 35.5292 62.8525 35.5292 62.3857V28.1291C35.5292 27.6623 35.9044 27.2871 36.3712 27.2871ZM21.7009 33.9137H29.0603C29.5232 33.9137 29.9023 34.2924 29.9023 34.7592V62.3864C29.9023 62.8532 29.5236 63.2319 29.0603 63.2319H21.7009C21.2341 63.2319 20.8589 62.8532 20.8589 62.3864V34.7592C20.8589 34.2924 21.2341 33.9137 21.7009 33.9137ZM28.2157 35.6012H22.5438V61.5438H28.2157V35.6012ZM7.8778 29.9998C7.42829 30.1086 6.97272 29.8314 6.8639 29.3818C6.75509 28.9289 7.0323 28.4768 7.48528 28.3679C8.38647 28.1464 9.33126 27.9011 10.3107 27.6373C11.2689 27.3773 12.1913 27.1187 13.0829 26.8549C13.5285 26.721 13.9953 26.9775 14.1253 27.4231C14.2553 27.8687 14.0027 28.3355 13.557 28.4655C12.6023 28.7501 11.6653 29.0165 10.7455 29.2652C9.84254 29.5084 8.88821 29.7536 7.87783 29.9998H7.8778ZM17.1808 27.3256C16.7425 27.4694 16.2683 27.2301 16.1211 26.7919C15.9773 26.3497 16.2165 25.8755 16.6548 25.7322C17.2935 25.518 17.9995 25.2753 18.7647 25.0016C19.4767 24.7451 20.1685 24.4929 20.8421 24.2364C21.2778 24.0753 21.7619 24.2921 21.9268 24.7278C22.0879 25.1635 21.8711 25.6476 21.4354 25.8125C20.7234 26.0824 20.0217 26.3423 19.3256 26.5876C18.6878 26.8169 17.971 27.0622 17.1808 27.3256H17.1808Z" fill="url(#paint0_linear_147_893)" stroke="url(#paint1_linear_147_893)" stroke-width="1.2"/>
<defs>
<linearGradient id="paint0_linear_147_893" x1="53.7114" y1="8.02379" x2="5.17214" y2="49.9807" gradientUnits="userSpaceOnUse">
<stop stop-color="#361B89"/>
<stop offset="1" stop-color="#593DAE"/>
</linearGradient>
<linearGradient id="paint1_linear_147_893" x1="53.7114" y1="8.02379" x2="5.17214" y2="49.9807" gradientUnits="userSpaceOnUse">
<stop stop-color="#361B89"/>
<stop offset="1" stop-color="#593DAE"/>
</linearGradient>
</defs>
</svg>
