<svg width="65" height="65" viewBox="0 0 65 65" fill="none" xmlns="http://www.w3.org/2000/svg">
<path d="M52.3986 41.9925L39.5289 33.8601L52.308 24.409C52.9359 23.9456 53.0684 23.0611 52.604 22.4341C52.1396 21.8071 51.2554 21.6747 50.6283 22.1388L32.507 35.5404L32.4994 35.5343L32.4918 35.5404L14.371 22.1388C13.7447 21.6746 12.8604 21.807 12.3962 22.4341C11.9319 23.0613 12.0643 23.9456 12.6915 24.409L25.4706 33.8601L12.6016 41.9925C11.9418 42.4095 11.7455 43.2815 12.1618 43.9416C12.4312 44.3661 12.8885 44.5997 13.3565 44.5997C13.6153 44.5997 13.8756 44.5289 14.1099 44.3805L27.9073 35.6622L31.6607 38.4384C31.9096 38.6225 32.2041 38.7154 32.4994 38.7154C32.7946 38.7154 33.0899 38.6225 33.3396 38.4384L37.0921 35.6622L50.8886 44.3805C51.123 44.5289 51.385 44.5997 51.6421 44.5997C52.1108 44.5997 52.5691 44.3661 52.8377 43.9416C53.254 43.2815 53.0576 42.4095 52.3986 41.9925Z" fill="url(#paint0_linear_147_3157)"/>
<path d="M13.902 13.9444H51.0955C56.4312 13.9444 60.8003 18.6793 60.8003 24.535V40.464C60.8003 46.3205 56.4312 51.0554 51.0955 51.0554H13.902C8.56724 51.0554 4.19805 46.3205 4.19805 40.464V24.535C4.19805 18.6793 8.56723 13.9444 13.902 13.9444ZM51.0955 47.9228C54.9015 47.9228 57.9583 44.5664 57.9583 40.464V24.535C57.9583 20.4327 54.9013 17.0771 51.0955 17.0771H13.902C10.097 17.0771 7.04002 20.4327 7.04002 24.535V40.464C7.04002 44.5664 10.0969 47.9228 13.902 47.9228H51.0955Z" fill="url(#paint1_linear_147_3157)" stroke="white" stroke-width="0.4"/>
<defs>
<linearGradient id="paint0_linear_147_3157" x1="48.7685" y1="24.3215" x2="33.5761" y2="52.0275" gradientUnits="userSpaceOnUse">
<stop stop-color="#361B89"/>
<stop offset="1" stop-color="#593DAE"/>
</linearGradient>
<linearGradient id="paint1_linear_147_3157" x1="55.0556" y1="17.8026" x2="27.8494" y2="59.5015" gradientUnits="userSpaceOnUse">
<stop stop-color="#361B89"/>
<stop offset="1" stop-color="#593DAE"/>
</linearGradient>
</defs>
</svg>
