<svg width="21" height="21" viewBox="0 0 21 21" fill="none" xmlns="http://www.w3.org/2000/svg">
<path d="M4.70117 21H0.347262V6.9795H4.70117V21ZM2.52159 5.067C1.12954 5.067 0 3.9135 0 2.5215C0 1.85276 0.265667 1.2114 0.738557 0.73853C1.21145 0.265657 1.85282 0 2.52159 0C3.19036 0 3.83173 0.265657 4.30462 0.73853C4.77751 1.2114 5.04318 1.85276 5.04318 2.5215C5.04318 3.9135 3.91364 5.067 2.52159 5.067ZM20.9962 21H16.6521V14.175C16.6521 12.5483 16.6191 10.4625 14.3885 10.4625C12.1249 10.4625 11.7777 12.2295 11.7777 14.058V21H7.42827V6.9795H11.6037V8.892H11.6644C12.2457 7.79025 13.6655 6.62775 15.7836 6.62775C20.19 6.62775 21 9.5295 21 13.2983V21H20.9962Z" fill="#817999"/>
</svg>
