<svg width="21" height="21" viewBox="0 0 21 21" fill="none" xmlns="http://www.w3.org/2000/svg">
<g clip-path="url(#clip0_147_2178)">
<path fill-rule="evenodd" clip-rule="evenodd" d="M10.5 21C16.299 21 21 16.299 21 10.5C21 4.70101 16.299 0 10.5 0C4.70101 0 0 4.70101 0 10.5C0 16.299 4.70101 21 10.5 21Z" fill="#817999"/>
<path fill-rule="evenodd" clip-rule="evenodd" d="M5.25 7.63068V13.5764C5.25 13.8999 5.48676 14.162 5.81294 14.162H15.0922C15.4181 14.162 15.6552 13.8968 15.6552 13.5764V7.63068C15.6552 7.27571 15.4431 7 15.0922 7H5.81294C5.44848 7 5.25 7.28248 5.25 7.63068ZM6.10558 8.14856C6.10558 8.00529 6.19229 7.92332 6.33082 7.92332C6.41652 7.92332 9.78837 10.0599 9.99261 10.1852L10.5203 10.5134C10.6876 10.4013 10.8556 10.3055 11.0291 10.1893C11.383 9.96303 14.5323 7.92332 14.619 7.92332C14.7579 7.92332 14.8443 8.00529 14.8443 8.14856C14.8443 8.30031 14.552 8.45103 14.3616 8.56721C13.1656 9.29611 11.97 10.0907 10.7859 10.8467C10.7168 10.8935 10.583 10.9934 10.4827 10.9781C10.371 10.9609 6.93982 8.75655 6.31558 8.38939C6.22176 8.33418 6.10558 8.28371 6.10558 8.14856Z" fill="white"/>
</g>
<defs>
<clipPath id="clip0_147_2178">
<rect width="21" height="21" fill="white"/>
</clipPath>
</defs>
</svg>
