<svg width="14" height="10" viewBox="0 0 14 10" fill="none" xmlns="http://www.w3.org/2000/svg">
<path d="M7 7.5C7.45199 7.5 7.90398 7.3588 8.28953 7.07266L14 2.84375V8.75C14 9.4401 13.4124 10 12.6875 10H1.3125C0.587617 10 0 9.44036 0 8.75V2.84375L5.70937 7.07552C6.09492 7.35938 6.54883 7.5 7 7.5ZM13.5546 2.11719L7.75223 6.41667C7.30953 6.74479 6.68938 6.74479 6.24668 6.41667L0.444336 2.11719C0.188672 1.90885 0 1.58854 0 1.25C0 0.559635 0.587891 0 1.3125 0H12.6875C13.4124 0 14 0.559635 14 1.25C14 1.58854 13.8357 1.90885 13.5546 2.11719Z" fill="white"/>
</svg>
