<svg width="25" height="25" viewBox="0 0 25 25" fill="none" xmlns="http://www.w3.org/2000/svg">
<path fill-rule="evenodd" clip-rule="evenodd" d="M20.8606 3.88662C18.5666 1.58892 15.5104 0.323524 12.2581 0.319824C5.5574 0.319824 0.0998999 5.77362 0.0998999 12.478C0.0998999 14.6203 0.6586 16.7145 1.7242 18.5571L0 24.8582L6.4454 23.1673C8.2214 24.1367 10.2194 24.6473 12.2544 24.6473H12.2581C18.9588 24.6473 24.4126 19.1935 24.4163 12.4891C24.42 9.24052 23.1583 6.18432 20.8606 3.88662ZM12.2618 22.5938H12.2581C10.4451 22.5938 8.6654 22.1054 7.1151 21.1841L6.7451 20.9658L2.9193 21.9685L3.9405 18.2389L3.7 17.8578C2.6899 16.2483 2.1534 14.3909 2.1534 12.478C2.1571 6.90582 6.6896 2.37332 12.2655 2.37332C14.9665 2.37332 17.501 3.42782 19.4102 5.33702C21.3194 7.24622 22.3702 9.78812 22.3665 12.4854C22.3665 18.0613 17.8303 22.5938 12.2618 22.5938ZM17.8044 15.0236C17.501 14.8719 16.0062 14.1356 15.7287 14.0357C15.4512 13.9358 15.2477 13.884 15.0442 14.1874C14.8407 14.4908 14.2598 15.1753 14.0822 15.3788C13.9046 15.5823 13.727 15.6082 13.4236 15.4565C13.1202 15.3048 12.1397 14.9829 10.9816 13.9469C10.0788 13.1403 9.4683 12.145 9.2907 11.8416C9.1131 11.5382 9.2722 11.3717 9.4239 11.22C9.5608 11.0831 9.7273 10.8648 9.879 10.6872C10.0307 10.5096 10.0825 10.3838 10.1824 10.1803C10.2823 9.97682 10.2342 9.79922 10.1565 9.64752C10.0788 9.49582 9.472 8.00102 9.2204 7.39052C8.9725 6.79852 8.7246 6.87992 8.5359 6.86882C8.3583 6.86142 8.1548 6.85772 7.955 6.85772C7.7515 6.85772 7.4222 6.93542 7.1447 7.23882C6.8672 7.54222 6.0828 8.27852 6.0828 9.77332C6.0828 11.2681 7.1706 12.7148 7.3223 12.9146C7.474 13.1181 9.4646 16.1854 12.5134 17.5026C13.2386 17.8171 13.8047 18.0021 14.245 18.1427C14.9739 18.3758 15.6362 18.3425 16.1579 18.2648C16.7425 18.176 17.9561 17.5285 18.2077 16.8218C18.4593 16.1114 18.4593 15.5046 18.3853 15.3788C18.3113 15.253 18.1078 15.179 17.8044 15.0236Z" fill="white"/>
</svg>
