<svg width="20" height="11" viewBox="0 0 20 11" fill="none" xmlns="http://www.w3.org/2000/svg">
<path d="M5.74735 0.223067C5.81434 0.293172 5.86752 0.376578 5.90381 0.468474C5.94009 0.56037 5.95878 0.658937 5.95878 0.75849C5.95878 0.858042 5.94009 0.95661 5.90381 1.04851C5.86752 1.1404 5.81434 1.22381 5.74735 1.29391L2.45937 4.76285H19.2852C19.4748 4.76285 19.6566 4.8423 19.7906 4.98373C19.9247 5.12515 20 5.31697 20 5.51697C20 5.71697 19.9247 5.90879 19.7906 6.05021C19.6566 6.19164 19.4748 6.27109 19.2852 6.27109H2.47367L5.74735 9.7174C5.88048 9.8587 5.9552 10.0498 5.9552 10.2491C5.9552 10.4483 5.88048 10.6394 5.74735 10.7807C5.61343 10.9212 5.43226 11 5.24343 11C5.0546 11 4.87344 10.9212 4.73951 10.7807L0.193531 5.98452C0.132345 5.92259 0.0836604 5.84824 0.0504023 5.76595C0.0171441 5.68365 0 5.59512 0 5.50566C0 5.4162 0.0171441 5.32766 0.0504023 5.24537C0.0836604 5.16308 0.132345 5.08873 0.193531 5.02679L4.73236 0.223067C4.79881 0.152384 4.87787 0.0962825 4.96497 0.057997C5.05207 0.0197115 5.1455 0 5.23986 0C5.33422 0 5.42764 0.0197115 5.51474 0.057997C5.60184 0.0962825 5.6809 0.152384 5.74735 0.223067Z" fill="url(#paint0_linear_147_485)"/>
<defs>
<linearGradient id="paint0_linear_147_485" x1="20" y1="2.70958e-07" x2="16.6401" y2="14.7822" gradientUnits="userSpaceOnUse">
<stop stop-color="#8432B1"/>
<stop offset="1" stop-color="#6A3EB3"/>
</linearGradient>
</defs>
</svg>
