<svg width="65" height="65" viewBox="0 0 65 65" fill="none" xmlns="http://www.w3.org/2000/svg">
<path fill-rule="evenodd" clip-rule="evenodd" d="M63.6457 54.1667C63.6457 57.9069 60.615 60.9375 56.8748 60.9375H8.12484C4.38463 60.9375 1.354 57.9069 1.354 54.1667V14.8958C1.354 11.9045 3.77932 9.47917 6.77067 9.47917H34.0856L45.053 5.50604C45.7477 5.25281 46.5168 5.61167 46.77 6.30365L47.9252 9.47917H52.8123C55.8037 9.47917 58.229 11.9045 58.229 14.8958V17.6042C61.2204 17.6042 63.6457 20.0295 63.6457 23.0208V54.1667ZM6.77067 12.1875C5.27567 12.1875 4.06234 13.4008 4.06234 14.8958C4.06234 16.3908 5.27567 17.6042 6.77067 17.6042H11.4358H11.6917C11.7093 17.5974 11.7202 17.5825 11.7378 17.5757L26.6092 12.1875H6.77067ZM46.1471 12.4326L44.709 8.47302H44.7077L41.9303 9.47917H41.9343L34.4674 12.1875H34.4539L19.5053 17.6042H48.0267L46.1471 12.4326ZM55.5207 14.8958C55.5207 13.4008 54.3073 12.1875 52.8123 12.1875H48.9083L50.8772 17.6042H55.5207V14.8958ZM58.229 20.3125H6.77067C5.77942 20.3125 4.8613 20.0268 4.06234 19.5609V54.1667C4.06234 56.4105 5.88234 58.2292 8.12484 58.2292H56.8748C59.1187 58.2292 60.9373 56.4105 60.9373 54.1667V44.6875H55.5207C52.5293 44.6875 50.104 42.2622 50.104 39.2708C50.104 36.2795 52.5293 33.8542 55.5207 33.8542H60.9373V23.0208C60.9373 21.5258 59.724 20.3125 58.229 20.3125ZM60.9373 41.9792V36.5625H55.5207C54.0257 36.5625 52.8123 37.7758 52.8123 39.2708C52.8123 40.7658 54.0257 41.9792 55.5207 41.9792H60.9373ZM55.5207 37.9167H58.229V40.625H55.5207V37.9167Z" fill="url(#paint0_linear_147_1253)" stroke="url(#paint1_linear_147_1253)" stroke-width="0.8"/>
<defs>
<linearGradient id="paint0_linear_147_1253" x1="57.1494" y1="11.4306" x2="13.4945" y2="60.8381" gradientUnits="userSpaceOnUse">
<stop stop-color="#361B89"/>
<stop offset="1" stop-color="#593DAE"/>
</linearGradient>
<linearGradient id="paint1_linear_147_1253" x1="57.1494" y1="11.4306" x2="13.4945" y2="60.8381" gradientUnits="userSpaceOnUse">
<stop stop-color="#361B89"/>
<stop offset="1" stop-color="#593DAE"/>
</linearGradient>
</defs>
</svg>
