<svg width="13" height="13" viewBox="0 0 13 13" fill="none" xmlns="http://www.w3.org/2000/svg">
<path d="M2.61806 5.62972C3.65806 7.67361 5.33 9.34555 7.3775 10.3856L8.96639 8.79306C9.165 8.59444 9.45028 8.53667 9.69944 8.61611C10.5083 8.88333 11.3786 9.02778 12.2778 9.02778C12.6786 9.02778 13 9.34917 13 9.75V12.2778C13 12.6786 12.6786 13 12.2778 13C5.49611 13 0 7.50389 0 0.722222C0 0.321389 0.325 0 0.722222 0H3.25C3.65083 0 3.97222 0.321389 3.97222 0.722222C3.97222 1.62139 4.11667 2.49167 4.38389 3.30056C4.46333 3.54972 4.40556 3.835 4.20694 4.03361L2.61806 5.62972Z" fill="white"/>
</svg>
