<svg width="21" height="21" viewBox="0 0 21 21" fill="none" xmlns="http://www.w3.org/2000/svg">
<path d="M10.4999 0C4.70096 0 0 4.70109 0 10.4999C0 14.9483 2.76753 18.7511 6.67353 20.281C6.58165 19.4502 6.49876 18.1725 6.70999 17.2656C6.90071 16.4462 7.9412 12.0464 7.9412 12.0464C7.9412 12.0464 7.62706 11.4175 7.62706 10.4875C7.62706 9.0275 8.4733 7.93751 9.52703 7.93751C10.4228 7.93751 10.8556 8.61012 10.8556 9.41657C10.8556 10.3175 10.282 11.6644 9.98591 12.9125C9.73859 13.9577 10.51 14.81 11.5408 14.81C13.4071 14.81 14.8416 12.8422 14.8416 10.0017C14.8416 7.48777 13.0351 5.73001 10.4557 5.73001C7.46808 5.73001 5.71442 7.97085 5.71442 10.2866C5.71442 11.1891 6.06203 12.1568 6.49585 12.6828C6.58157 12.7868 6.5942 12.878 6.56869 12.984C6.48892 13.3157 6.31185 14.0288 6.27703 14.1748C6.23122 14.367 6.12482 14.4078 5.9259 14.3152C4.61446 13.7047 3.7946 11.7875 3.7946 10.2475C3.7946 6.93529 6.20107 3.89357 10.7323 3.89357C14.3747 3.89357 17.2054 6.489 17.2054 9.95773C17.2054 13.5765 14.9238 16.4887 11.7568 16.4887C10.6929 16.4887 9.69261 15.936 9.35029 15.2831C9.35029 15.2831 8.82373 17.2879 8.69609 17.7792C8.45894 18.6912 7.8191 19.8344 7.39106 20.5317C8.37359 20.8359 9.4176 21 10.4999 21C16.2991 21 21 16.2991 21 10.4999C21 4.70109 16.2991 0 10.4999 0Z" fill="#817999"/>
</svg>
