<svg width="44" height="44" viewBox="0 0 44 44" fill="none" xmlns="http://www.w3.org/2000/svg">
<g clip-path="url(#clip0_147_544)">
<path d="M22 44C9.8516 44 0 34.1484 0 22C0 9.8516 9.8516 0 22 0C34.1484 0 44 9.8516 44 22C44 34.1484 34.1484 44 22 44Z" fill="#25D366"/>
<path fill-rule="evenodd" clip-rule="evenodd" d="M32.2916 11.7569C29.5636 9.02446 25.9292 7.51966 22.0616 7.51526C14.0932 7.51526 7.60317 14.0009 7.60317 21.9737C7.60317 24.5213 8.26757 27.0117 9.53477 29.2029L7.48438 36.6961L15.1492 34.6853C17.2612 35.8381 19.6372 36.4453 22.0572 36.4453H22.0616C30.03 36.4453 36.5156 29.9597 36.52 21.9869C36.5244 18.1237 35.024 14.4893 32.2916 11.7569ZM22.066 34.0033H22.0616C19.9056 34.0033 17.7892 33.4225 15.9456 32.3269L15.5056 32.0673L10.956 33.2597L12.1704 28.8245L11.8844 28.3713C10.6832 26.4573 10.0452 24.2485 10.0452 21.9737C10.0496 15.3473 15.4396 9.95726 22.0704 9.95726C25.2824 9.95726 28.2964 11.2113 30.5668 13.4817C32.8372 15.7521 34.0868 18.7749 34.0824 21.9825C34.0824 28.6133 28.688 34.0033 22.066 34.0033ZM28.6572 25.0009C28.2964 24.8205 26.5188 23.9449 26.1888 23.8261C25.8588 23.7073 25.6168 23.6457 25.3748 24.0065C25.1328 24.3673 24.442 25.1813 24.2308 25.4233C24.0196 25.6653 23.8084 25.6961 23.4476 25.5157C23.0868 25.3353 21.9208 24.9525 20.5436 23.7205C19.47 22.7613 18.744 21.5777 18.5328 21.2169C18.3216 20.8561 18.5108 20.6581 18.6912 20.4777C18.854 20.3149 19.052 20.0553 19.2324 19.8441C19.4128 19.6329 19.4744 19.4833 19.5932 19.2413C19.712 18.9993 19.6548 18.7881 19.5624 18.6077C19.47 18.4273 18.7484 16.6497 18.4492 15.9237C18.1544 15.2197 17.8596 15.3165 17.6352 15.3033C17.424 15.2945 17.182 15.2901 16.9444 15.2901C16.7024 15.2901 16.3108 15.3825 15.9808 15.7433C15.6508 16.1041 14.718 16.9797 14.718 18.7573C14.718 20.5349 16.0116 22.2553 16.192 22.4929C16.3724 22.7349 18.7396 26.3825 22.3652 27.9489C23.2276 28.3229 23.9008 28.5429 24.4244 28.7101C25.2912 28.9873 26.0788 28.9477 26.6992 28.8553C27.3944 28.7497 28.8376 27.9797 29.1368 27.1393C29.436 26.2945 29.436 25.5729 29.348 25.4233C29.26 25.2737 29.018 25.1857 28.6572 25.0009Z" fill="white"/>
</g>
<defs>
<clipPath id="clip0_147_544">
<rect width="44" height="44" fill="white"/>
</clipPath>
</defs>
</svg>
